<svg width="200" height="60" viewBox="0 0 200 60" fill="none" xmlns="http://www.w3.org/2000/svg">
  <rect width="200" height="60" fill="white"/>
  <g transform="translate(10, 10)">
    <path d="M25 2C12.3 2 2 12.3 2 25C2 30.2 3.9 35 7.1 38.6C6.1 42.4 3 45 3 45C3 45 7.6 43.1 11.4 41C15.6 42.6 20.2 43.5 25 43.5C37.7 43.5 48 33.2 48 20.5C48 16.5 46.5 12.8 44 9.8C40.8 5.2 34.2 2 25 2Z" fill="#337c7b"/>
    <path d="M44 9.8C42.8 11.5 41 12.8 39 13.5C39.5 10 41 6 44 4C45 6 45 8 44 9.8Z" fill="white"/>
  </g>
  <text x="65" y="38" font-family="system-ui, sans-serif" font-size="24" font-weight="700" fill="#2c3e50">
    QueueBite
  </text>
</svg>