<svg width="1200" height="630" viewBox="0 0 1200 630" fill="none" xmlns="http://www.w3.org/2000/svg" role="img" aria-label="QueueBite Banner">
    <style>
        .title {
            font-family: -apple-system, BlinkMacSystemFont, 'Segoe UI', Roboto, Helvetica, Arial, sans-serif;
            font-size: 72px;
            font-weight: 800;
            fill: #2c3e50;
        }
        .tagline {
            font-family: -apple-system, BlinkMacSystemFont, 'Segoe UI', Roboto, Helvetica, Arial, sans-serif;
            font-size: 32px;
            font-weight: 500;
            fill: #4a5568;
        }
    </style>

    <!-- Background -->
    <rect width="1200" height="630" fill="#f8fafc"/>
    <rect x="0" y="0" width="1200" height="15" fill="#337c7b"/>
    <rect x="0" y="615" width="1200" height="15" fill="#ea445a"/>

    <!-- Main Content Area -->
    <g transform="translate(80, 140)">
        <!-- Logo (Abstract Cutlery Q) -->
        <g transform="scale(2.2)">
            <path d="M25 5C14 5 5 14 5 25C5 36 14 45 25 45C30.5 45 35.4 42.8 39 39.5" stroke="#337c7b" stroke-width="3.5" stroke-linecap="round" fill="none"/>
            <path d="M38 40L42 44" stroke="#337c7b" stroke-width="3.5" stroke-linecap="round" fill="none"/>
            <rect x="22" y="2" width="4" height="10" fill="#ea445a"/>
            <rect x="28" y="2" width="4" height="10" fill="#ea445a"/>
            <rect x="34" y="2" width="4" height="10" fill="#ea445a"/>
        </g>

        <!-- Text Content -->
        <text x="180" y="70" class="title">QueueBite</text>
        <text x="180" y="120" class="tagline">
            <tspan x="180" dy="0">A smart, real-time canteen queue</tspan>
            <tspan x="180" dy="38">management system.</tspan>
        </text>
    </g>

    <!-- Tech Stack Icons -->
    <g transform="translate(80, 470)">
        <text x="0" y="30" font-family="sans-serif" font-size="28" font-weight="600" fill="#6b7280">Powered by:</text>

        <!-- React -->
        <g transform="translate(200, 0)">
            <circle cx="25" cy="25" r="25" fill="#61DAFB"/>
            <g transform="translate(25, 25) scale(0.6)">
                <ellipse rx="18" ry="8" stroke="white" stroke-width="2" fill="none"/>
                <ellipse rx="18" ry="8" transform="rotate(60)" stroke="white" stroke-width="2" fill="none"/>
                <ellipse rx="18" ry="8" transform="rotate(120)" stroke="white" stroke-width="2" fill="none"/>
                <circle r="3" fill="white"/>
            </g>
        </g>

        <!-- Django -->
        <g transform="translate(300, 0)">
            <rect width="50" height="50" rx="10" fill="#092E20"/>
            <text x="25" y="35" font-family="monospace" font-size="24" fill="white" text-anchor="middle" font-weight="bold">DJ</text>
        </g>

        <!-- Socket.IO -->
        <g transform="translate(400, 0)">
             <circle cx="16" cy="16" r="16" fill="#010101"/>
            <path d="M16.5 4L14.5 13L18.5 15L13.5 28L16.5 19L12.5 17L16.5 4Z" fill="white"/>
        </g>

        <!-- PostgreSQL -->
        <g transform="translate(500, 0)">
            <circle cx="25" cy="25" r="25" fill="#336791"/>
            <path d="M32 12c-3 0-5 2-7 2s-4-2-7-2c-4 0-7 3-7 7 0 10 7 14 14 14s14-4 14-14c0-4-3-7-7-7z" fill="white"/>
            <circle cx="20" cy="24" r="2" fill="#336791"/>
            <circle cx="30" cy="24" r="2" fill="#336791"/>
        </g>
    </g>
</svg>
